<svg width="24" height="25" viewBox="0 0 24 25" fill="none" xmlns="http://www.w3.org/2000/svg">
<path d="M8.00004 7.5C8.00004 7.23478 8.1054 6.98043 8.29293 6.79289C8.48047 6.60536 8.73483 6.5 9.00004 6.5H17C17.2653 6.5 17.5196 6.60536 17.7071 6.79289C17.8947 6.98043 18 7.23478 18 7.5V15.5C18 15.7652 17.8947 16.0196 17.7071 16.2071C17.5196 16.3946 17.2653 16.5 17 16.5C16.7348 16.5 16.4805 16.3946 16.2929 16.2071C16.1054 16.0196 16 15.7652 16 15.5V9.914L7.70704 18.207C7.51844 18.3892 7.26584 18.49 7.00364 18.4877C6.74144 18.4854 6.49063 18.3802 6.30522 18.1948C6.11981 18.0094 6.01465 17.7586 6.01237 17.4964C6.01009 17.2342 6.11088 16.9816 6.29304 16.793L14.586 8.5H9.00004C8.73483 8.5 8.48047 8.39464 8.29293 8.20711C8.1054 8.01957 8.00004 7.76522 8.00004 7.5Z" fill="#7355A8"/>
</svg>
